<?xml version="1.0" encoding="UTF-8"?>
<svg width="20px" height="20px" viewBox="0 0 20 20" version="1.1" xmlns="http://www.w3.org/2000/svg" xmlns:xlink="http://www.w3.org/1999/xlink">
    <!-- Generator: Sketch 57.1 (83088) - https://sketch.com -->
    <title>形状结合</title>
    <desc>Created with Sketch.</desc>
    <defs>
        <rect id="path-1" x="405" y="297" width="1110" height="152" rx="5"></rect>
        <filter x="-1.3%" y="-8.2%" width="102.6%" height="119.1%" filterUnits="objectBoundingBox" id="filter-2">
            <feOffset dx="0" dy="2" in="SourceAlpha" result="shadowOffsetOuter1"></feOffset>
            <feGaussianBlur stdDeviation="4.5" in="shadowOffsetOuter1" result="shadowBlurOuter1"></feGaussianBlur>
            <feComposite in="shadowBlurOuter1" in2="SourceAlpha" operator="out" result="shadowBlurOuter1"></feComposite>
            <feColorMatrix values="0 0 0 0 0   0 0 0 0 0   0 0 0 0 0  0 0 0 0.07 0" type="matrix" in="shadowBlurOuter1"></feColorMatrix>
        </filter>
    </defs>
    <g id="页面-1" stroke="none" stroke-width="1" fill="none" fill-rule="evenodd">
        <g id="运营商详情" transform="translate(-525.000000, -371.000000)">
            <rect fill="#FFFFFF" x="0" y="0" width="1920" height="1577"></rect>
            <g id="Rectangle备份-6">
                <use fill="black" fill-opacity="1" filter="url(#filter-2)" xlink:href="#path-1"></use>
                <rect stroke="#E7EAEE" stroke-width="1" stroke-linejoin="square" fill="#FFFFFF" fill-rule="evenodd" x="405.5" y="297.5" width="1109" height="151" rx="5"></rect>
            </g>
            <g id="bg" transform="translate(405.000000, 297.000000)" fill="#EAEFFF" fill-opacity="0.24" fill-rule="nonzero" stroke="#003CFF" stroke-opacity="0.02">
                <path d="M0.5,36.4033407 C0.5,81.4102548 0.5,81.5163146 0.5,110.36856 C0.5,121.74519 0.5,121.74519 0.5,128.984865 C0.5,133.57212 0.5,134.090121 0.5,134.870564 C63.2160528,163.793976 130.421378,154.787133 179.217483,109.607454 C193.036252,96.8128351 208.777852,88.810926 227.75036,84.0766568 C242.211706,80.4680718 254.429798,79.1423729 281.876619,77.4029634 C301.53303,76.1572618 309.94836,75.4626058 320.747852,73.9333896 C354.407871,69.1671053 380.383858,58.3600567 403.998569,36.4033407 C403.249154,36.4033407 401.958637,36.4033407 398.93105,36.4033407 C391.543438,36.4033407 391.543438,36.4033407 379.934334,36.4033407 C350.383886,36.4033407 350.383886,36.4033407 303.947467,36.4033407 C185.85183,36.4033407 185.74577,36.4033407 0.5,36.4033407 Z" id="wave" transform="translate(202.631645, 93.951670) scale(1, -1) translate(-202.631645, -93.951670) "></path>
            </g>
            <g id="编组-2" transform="translate(435.000000, 327.000000)" fill="#C9D1D8">
                <g id="编组-5" transform="translate(90.000000, 44.000000)">
                    <g id="地址">
                        <path d="M16.5829798,15.5414628 C15.9226698,16.3530174 14.726397,16.4804005 13.9093897,15.8251213 C13.3687439,15.3917371 13.1387815,14.7272759 13.2319495,14.0903604 C13.267627,13.8448373 13.3476085,13.6031705 13.4831089,13.3812142 L12.5557418,12.6327695 C11.3409217,13.964324 9.31112765,14.1770372 7.84108132,13.1278558 L7.05913523,14.086504 C7.06049085,14.0877895 7.06246266,14.0904216 7.06381828,14.0904216 C7.9230347,14.9361328 8.01694217,16.3058226 7.24097313,17.260492 C6.41478454,18.2808424 4.91300439,18.4384644 3.88723161,17.6163812 C2.86275283,16.7956447 2.70149571,15.303836 3.5289783,14.2860566 C3.58782452,14.2125404 3.6559136,14.1547559 3.72067525,14.0904216 C4.52776192,13.3024949 5.78688614,13.1790906 6.72879536,13.8172917 L7.50938583,12.8586435 C6.18149472,11.6478612 5.97463947,9.63476731 7.03547351,8.18103281 L6.08894286,7.41667294 C5.50405458,7.91965565 4.62357959,7.95246552 4.00030262,7.45346162 C3.3003099,6.8914089 3.19062794,5.87240523 3.75641431,5.17507299 C4.32220068,4.47902621 5.34797346,4.37006805 6.04993799,4.93205956 C6.71357545,5.46522 6.83909351,6.40678992 6.36850862,7.0949403 L7.30511859,7.85134255 C8.52061651,6.54341611 10.5306308,6.33853804 11.988723,7.37461998 L12.7369635,6.45808596 C12.0027106,5.73577904 11.9147801,4.56968185 12.5776782,3.7528629 C13.2848803,2.88358489 14.5671733,2.7469587 15.4442593,3.44820853 C16.3200512,4.15209051 16.4568456,5.42592161 15.7503212,6.2965463 C15.0900112,7.10816219 13.9352697,7.27227277 13.072048,6.72338072 L12.3212196,7.64126142 C13.6510209,8.84543275 13.8665644,10.846835 12.8248323,12.3031405 L13.7462224,13.0464433 C14.4230463,12.3530286 15.5268904,12.2663518 16.2976219,12.8849648 C16.6875474,13.1974544 16.915538,13.6334095 16.9810391,14.0904216 C17.0515929,14.590711 16.9266294,15.1173217 16.5829798,15.5414628 Z" id="Path"></path>
                    </g>
                    <g id="编组-3备份">
                        <path d="M16.5829798,15.5414628 C15.9226698,16.3530174 14.726397,16.4804005 13.9093897,15.8251213 C13.3687439,15.3917371 13.1387815,14.7272759 13.2319495,14.0903604 C13.267627,13.8448373 13.3476085,13.6031705 13.4831089,13.3812142 L12.5557418,12.6327695 C11.3409217,13.964324 9.31112765,14.1770372 7.84108132,13.1278558 L7.05913523,14.086504 C7.06049085,14.0877895 7.06246266,14.0904216 7.06381828,14.0904216 C7.9230347,14.9361328 8.01694217,16.3058226 7.24097313,17.260492 C6.41478454,18.2808424 4.91300439,18.4384644 3.88723161,17.6163812 C2.86275283,16.7956447 2.70149571,15.303836 3.5289783,14.2860566 C3.58782452,14.2125404 3.6559136,14.1547559 3.72067525,14.0904216 C4.52776192,13.3024949 5.78688614,13.1790906 6.72879536,13.8172917 L7.50938583,12.8586435 C6.18149472,11.6478612 5.97463947,9.63476731 7.03547351,8.18103281 L6.08894286,7.41667294 C5.50405458,7.91965565 4.62357959,7.95246552 4.00030262,7.45346162 C3.3003099,6.8914089 3.19062794,5.87240523 3.75641431,5.17507299 C4.32220068,4.47902621 5.34797346,4.37006805 6.04993799,4.93205956 C6.71357545,5.46522 6.83909351,6.40678992 6.36850862,7.0949403 L7.30511859,7.85134255 C8.52061651,6.54341611 10.5306308,6.33853804 11.988723,7.37461998 L12.7369635,6.45808596 C12.0027106,5.73577904 11.9147801,4.56968185 12.5776782,3.7528629 C13.2848803,2.88358489 14.5671733,2.7469587 15.4442593,3.44820853 C16.3200512,4.15209051 16.4568456,5.42592161 15.7503212,6.2965463 C15.0900112,7.10816219 13.9352697,7.27227277 13.072048,6.72338072 L12.3212196,7.64126142 C13.6510209,8.84543275 13.8665644,10.846835 12.8248323,12.3031405 L13.7462224,13.0464433 C14.4230463,12.3530286 15.5268904,12.2663518 16.2976219,12.8849648 C16.6875474,13.1974544 16.915538,13.6334095 16.9810391,14.0904216 C17.0515929,14.590711 16.9266294,15.1173217 16.5829798,15.5414628 Z" id="Path"></path>
                    </g>
                </g>
            </g>
        </g>
    </g>
</svg>