<svg xmlns="http://www.w3.org/2000/svg" xmlns:xlink="http://www.w3.org/1999/xlink" width="20px" height="20px" viewBox="10 11 28 20">
  <g id="页面-1" stroke="none" stroke-width="1" fill="none" fill-rule="evenodd" fill-opacity="1">
    <g id="运营商详情" transform="translate(-1465.000000, -329.000000)" fill="#738ADB" fill-rule="nonzero">
      <g id="编组-2" transform="translate(435.000000, 327.000000)">
        <g id="编组-6" transform="translate(962.000000, 0.000000)">
          <g id="dicordblue-a" transform="translate(68.000000, 0.000000)">
            <path id="dicordblue-a" d="M28.3240827,30.9655846 C29.8612842,30.4857645 31.1585756,29.7393777 32.1804147,28.4332007 C26.591399,31.6586581 21.0734678,31.560917 15.5644222,28.4953996 C15.6977055,28.8419364 16.3196946,29.4816965 17.1371659,29.9704022 C17.7680404,30.3435956 18.4522284,30.6457045 19.1275307,30.9833557 C19.0653318,31.0633257 18.9764763,31.1877236 18.8787351,31.3121214 C18.6477106,31.6053448 18.3811439,31.8719115 18.1856616,32.182906 C17.9279805,32.5916416 17.6081004,32.7071539 17.1193947,32.6538405 C15.1112587,32.422816 13.3430328,31.720857 11.8946869,30.2725111 C11.370439,29.7571488 11.2193846,29.2062442 11.2549268,28.4598574 C11.4326379,25.0478033 12.2412237,21.7868037 13.5296295,18.6413164 C13.7073407,18.2059241 13.9383652,17.7883029 14.1160763,17.3529105 C14.2404741,17.041916 14.4537275,16.8375482 14.7291798,16.6598371 C16.0797845,15.7623958 17.5281304,15.1137501 19.1364163,14.8382978 C19.4651819,14.7849844 19.7939475,14.7405566 20.1315987,14.7227855 C20.2559965,14.7139 20.3892799,14.8116411 20.5047921,14.9093822 C19.1719585,15.3625457 17.8835527,15.8423658 16.6840024,16.5443248 C16.2041823,16.8197771 15.7510189,17.1485427 15.2889699,17.4506517 C15.1912288,17.5128506 15.1023732,17.6017062 14.9868609,17.6994473 C20.6825033,14.9804667 26.351489,14.8471833 32.0293602,17.6283628 C30.5099299,16.4021559 28.759475,15.637998 26.9201646,15.0426656 C27.053448,14.7672133 27.2400447,14.7050144 27.5332681,14.7316711 C29.523633,14.9182678 31.3007445,15.6468835 32.9179159,16.7842349 C33.0689704,16.8908616 33.2111393,17.041916 33.2999949,17.2107416 C34.5617441,19.7608966 35.405872,22.4354494 35.8856921,25.2344 C36.1078311,26.540577 36.2233433,27.8645251 36.25,29.1884731 C36.25,29.3572987 36.1878011,29.5616665 36.0811744,29.6949499 C35.0149075,31.0810969 33.6021039,31.9341104 31.9316191,32.3695027 C31.2918589,32.5383283 30.6165566,32.5916416 29.9590253,32.6804972 C29.8523986,32.6982683 29.7013441,32.6627261 29.6391452,32.5916416 C29.1948674,32.0496226 28.7772462,31.5253747 28.3240827,30.9655846 Z M19.7584053,27.4469039 C20.2382254,27.4469039 20.6647322,27.2958494 21.0379256,26.9937404 C21.6599146,26.4872636 21.8642824,25.8030757 21.9620236,25.0211467 C22.1575058,23.3773185 20.3004243,22.1777683 18.860964,22.8530706 C17.8480105,23.3328907 17.314877,24.5679832 17.6347571,25.7231057 C17.9190949,26.7627159 18.7632229,27.4469039 19.7584053,27.4469039 Z M27.5688103,27.4824461 C27.8176059,27.4202472 28.0841727,27.3935905 28.3151972,27.2958494 C29.763543,26.7182881 30.225592,24.7812366 29.2304096,23.4839452 C28.439595,22.4621061 26.9645924,22.364365 26.0582656,23.2884629 C25.4718188,23.8837953 25.2941076,24.612411 25.3829632,25.4298823 C25.5251321,26.5494625 26.4847723,27.4469039 27.5688103,27.4824461"/>
          </g>
        </g>
      </g>
    </g>
  </g>
</svg>
