<?xml version="1.0" encoding="UTF-8"?>
<svg width="20px" height="20px" viewBox="0 0 20 20" version="1.1" xmlns="http://www.w3.org/2000/svg" xmlns:xlink="http://www.w3.org/1999/xlink">
    <!-- Generator: Sketch 57.1 (83088) - https://sketch.com -->
    <title>形状结合</title>
    <desc>Created with Sketch.</desc>
    <defs>
        <rect id="path-1" x="405" y="297" width="1110" height="152" rx="5"></rect>
        <filter x="-1.3%" y="-8.2%" width="102.6%" height="119.1%" filterUnits="objectBoundingBox" id="filter-2">
            <feOffset dx="0" dy="2" in="SourceAlpha" result="shadowOffsetOuter1"></feOffset>
            <feGaussianBlur stdDeviation="4.5" in="shadowOffsetOuter1" result="shadowBlurOuter1"></feGaussianBlur>
            <feComposite in="shadowBlurOuter1" in2="SourceAlpha" operator="out" result="shadowBlurOuter1"></feComposite>
            <feColorMatrix values="0 0 0 0 0   0 0 0 0 0   0 0 0 0 0  0 0 0 0.07 0" type="matrix" in="shadowBlurOuter1"></feColorMatrix>
        </filter>
    </defs>
    <g id="页面-1" stroke="none" stroke-width="1" fill="none" fill-rule="evenodd">
        <g id="运营商详情" transform="translate(-525.000000, -399.000000)">
            <rect fill="#FFFFFF" x="0" y="0" width="1920" height="1577"></rect>
            <g id="Rectangle备份-6">
                <use fill="black" fill-opacity="1" filter="url(#filter-2)" xlink:href="#path-1"></use>
                <rect stroke="#E7EAEE" stroke-width="1" stroke-linejoin="square" fill="#FFFFFF" fill-rule="evenodd" x="405.5" y="297.5" width="1109" height="151" rx="5"></rect>
            </g>
            <g id="bg" transform="translate(405.000000, 297.000000)" fill="#EAEFFF" fill-opacity="0.24" fill-rule="nonzero" stroke="#003CFF" stroke-opacity="0.02">
                <path d="M0.5,36.4033407 C0.5,81.4102548 0.5,81.5163146 0.5,110.36856 C0.5,121.74519 0.5,121.74519 0.5,128.984865 C0.5,133.57212 0.5,134.090121 0.5,134.870564 C63.2160528,163.793976 130.421378,154.787133 179.217483,109.607454 C193.036252,96.8128351 208.777852,88.810926 227.75036,84.0766568 C242.211706,80.4680718 254.429798,79.1423729 281.876619,77.4029634 C301.53303,76.1572618 309.94836,75.4626058 320.747852,73.9333896 C354.407871,69.1671053 380.383858,58.3600567 403.998569,36.4033407 C403.249154,36.4033407 401.958637,36.4033407 398.93105,36.4033407 C391.543438,36.4033407 391.543438,36.4033407 379.934334,36.4033407 C350.383886,36.4033407 350.383886,36.4033407 303.947467,36.4033407 C185.85183,36.4033407 185.74577,36.4033407 0.5,36.4033407 Z" id="wave" transform="translate(202.631645, 93.951670) scale(1, -1) translate(-202.631645, -93.951670) "></path>
            </g>
            <g id="编组-2" transform="translate(435.000000, 327.000000)" fill="#C9D1D8">
                <g id="编组-3" transform="translate(90.000000, 72.000000)">
                    <g id="官网">
                        <path d="M3.6,12.926173 C3.6,13.3945362 3.97971294,13.7742492 4.44807623,13.7742492 L9.5646846,13.7742492 L9.5646846,15.8519961 L8.22190327,15.8519961 C7.98772163,15.8519961 7.79790134,16.0418164 7.79790134,16.2759981 C7.79790134,16.5101797 7.98772163,16.7 8.22190327,16.7 L11.7554698,16.7 C11.9897238,16.7 12.1795441,16.5101797 12.1795441,16.2759981 C12.1795441,16.0418164 11.9897238,15.8519961 11.7554698,15.8519961 L10.4127608,15.8519961 L10.4127608,13.7742492 L15.5293692,13.7742492 C15.9976601,13.7742492 16.3773731,13.3945362 16.3773731,12.926173 L16.3773731,11.145278 L3.6,11.145278 L3.6,12.926173 Z M15.5293692,4.7 L4.44807623,4.7 C3.97971294,4.7 3.6,5.07971294 3.6,5.54807623 L3.6,10.2830901 L16.3773731,10.2830901 L16.3773731,5.54807623 C16.3773731,5.07971294 15.9976601,4.7 15.5293692,4.7 L15.5293692,4.7 Z" id="Fill-1"></path>
                    </g>
                    <g id="形状结合">
                        <path d="M3.6,12.926173 C3.6,13.3945362 3.97971294,13.7742492 4.44807623,13.7742492 L9.5646846,13.7742492 L9.5646846,15.8519961 L8.22190327,15.8519961 C7.98772163,15.8519961 7.79790134,16.0418164 7.79790134,16.2759981 C7.79790134,16.5101797 7.98772163,16.7 8.22190327,16.7 L11.7554698,16.7 C11.9897238,16.7 12.1795441,16.5101797 12.1795441,16.2759981 C12.1795441,16.0418164 11.9897238,15.8519961 11.7554698,15.8519961 L10.4127608,15.8519961 L10.4127608,13.7742492 L15.5293692,13.7742492 C15.9976601,13.7742492 16.3773731,13.3945362 16.3773731,12.926173 L16.3773731,11.145278 L3.6,11.145278 L3.6,12.926173 Z M15.5293692,4.7 L4.44807623,4.7 C3.97971294,4.7 3.6,5.07971294 3.6,5.54807623 L3.6,10.2830901 L16.3773731,10.2830901 L16.3773731,5.54807623 C16.3773731,5.07971294 15.9976601,4.7 15.5293692,4.7 L15.5293692,4.7 Z" id="Fill-1"></path>
                    </g>
                </g>
            </g>
        </g>
    </g>
</svg>