<svg xmlns="http://www.w3.org/2000/svg" xmlns:xlink="http://www.w3.org/1999/xlink" width="20px" height="16px" viewBox="0 0 28 20">
  <g id="页面-1" stroke="none" stroke-width="1" fill="none" fill-rule="evenodd" fill-opacity="0.9">
    <g id="运营商详情" transform="translate(-1465.000000, -329.000000)" fill="#FF4500" fill-rule="nonzero">
      <g id="编组-2" transform="translate(435.000000, 327.000000)">
        <g id="编组-6" transform="translate(962.000000, 0.000000)">
          <g id="reddit-a" transform="translate(68.000000, 0.000000)">
            <path id="reddit-a" d="M26.9444444,10.8981337 C26.9444444,9.1649197 25.5219184,7.75538194 23.7728299,7.75538194 C23.0157986,7.75538194 22.3206163,8.02009549 21.7746962,8.46066623 C19.8408854,7.25626085 17.3867188,6.53056641 14.7560764,6.37697483 L16.1282986,2.0780599 L19.8994358,2.95817057 C19.9983941,4.31864149 21.1463108,5.39563802 22.5440972,5.39563802 C24.0062066,5.39563802 25.1961806,4.21659071 25.1961806,2.76685113 C25.1961806,1.31814236 24.0062066,0.138888889 22.5440972,0.138888889 C21.5215278,0.138888889 20.6325521,0.715733507 20.1897135,1.55832248 L15.8075087,0.535959201 C15.4405382,0.450195312 15.0694444,0.659450955 14.9556424,1.01570095 L13.2519097,6.35161675 C10.4175781,6.4202691 7.753125,7.14823134 5.67747396,8.42314453 C5.13897569,8.00566406 4.46193576,7.75558811 3.72717014,7.75558811 C1.9780816,7.75538194 0.555555556,9.1649197 0.555555556,10.8981337 C0.555555556,11.9693576 1.09982639,12.9164714 1.92860243,13.4836263 C1.89396701,13.7328776 1.87582465,13.9837782 1.87582465,14.2377713 C1.87582465,16.403928 3.14661458,18.418967 5.45399306,19.9111762 C7.66571181,21.3419488 10.5932292,22.1296984 13.6963976,22.1296984 C16.799566,22.1296984 19.7270833,21.3419488 21.9388021,19.9111762 C24.2461806,18.4191732 25.5169705,16.4041341 25.5169705,14.2377713 C25.5169705,14.0064562 25.5013021,13.7769965 25.4724392,13.54898 C26.356467,12.9906901 26.9444444,12.0110026 26.9444444,10.8981337 M22.5440972,1.5671875 C23.212066,1.5671875 23.7555122,2.10568576 23.7555122,2.76664497 C23.7555122,3.42842882 23.212066,3.96692708 22.5440972,3.96692708 C21.8761285,3.96692708 21.3326823,3.42842882 21.3326823,2.76664497 C21.3326823,2.10568576 21.8761285,1.5671875 22.5440972,1.5671875 M8.03845486,12.8420464 C8.03845486,11.8656576 8.8655816,11.0459527 9.85104167,11.0459527 C10.8373264,11.0459527 11.6372396,11.8654514 11.6372396,12.8420464 C11.6372396,13.81926 10.8373264,14.6119575 9.85104167,14.6119575 C8.8655816,14.6119575 8.03845486,13.81926 8.03845486,12.8420464 M18.0942708,18.0472548 C17.1756076,18.9566406 15.7588542,19.3988607 13.7631944,19.3988607 C13.7590712,19.3988607 13.7541233,19.398036 13.7491753,19.398036 C13.7450521,19.398036 13.7401042,19.3988607 13.7351563,19.3988607 C11.7394965,19.3988607 10.3235677,18.9568468 9.40572917,18.0472548 C9.12369792,17.7676975 9.12369792,17.3159939 9.40572917,17.0372613 C9.68693576,16.7585286 10.1429688,16.7585286 10.425,17.0372613 C11.0583333,17.664822 12.1411024,17.9703559 13.7351563,17.9703559 C13.7401042,17.9703559 13.7450521,17.9711806 13.7491753,17.9711806 C13.7541233,17.9711806 13.7590712,17.9703559 13.7631944,17.9703559 C15.3572483,17.9703559 16.440842,17.664822 17.075,17.0372613 C17.3570313,16.757704 17.8130642,16.7585286 18.0942708,17.0372613 C18.3754774,17.3166124 18.3754774,17.7685221 18.0942708,18.0472548 M17.6753472,14.6119575 C16.6890625,14.6119575 15.8602865,13.81926 15.8602865,12.8420464 C15.8602865,11.8648329 16.6890625,11.0459527 17.6753472,11.0459527 C18.6616319,11.0459527 19.4615451,11.8646267 19.4615451,12.8420464 C19.4615451,13.81926 18.6616319,14.6119575 17.6753472,14.6119575"/>
          </g>
        </g>
      </g>
    </g>
  </g>
</svg>
