<?xml version="1.0" encoding="UTF-8"?>
<svg width="137px" height="50px" viewBox="0 0 137 50" version="1.1" xmlns="http://www.w3.org/2000/svg" xmlns:xlink="http://www.w3.org/1999/xlink">
    <!-- Generator: Sketch 54.1 (76490) - https://sketchapp.com -->
    <title>logo</title>
    <desc>Created with Sketch.</desc>
    <g id="Page-1" stroke="none" stroke-width="1" fill="none" fill-rule="evenodd" opacity="0.7">
        <g id="首页复制" transform="translate(-609.000000, -2687.000000)" fill="#FFFFFF">
            <g id="编组" transform="translate(609.000000, 2687.000000)">
                <path d="M50.6514687,35.0295078 L42.6383471,15.1117529 L47.451883,15.1117529 L52.6335129,29.0400552 L57.8151427,15.1117529 L62.5154189,15.1117529 L54.5022974,35.0295078 L50.6514687,35.0295078 Z M72.6309226,35.2272727 C66.4582707,35.2272727 62.2110331,30.9046961 62.2110331,25.0565043 L62.2110331,25 C62.2110331,19.3778252 66.5998453,14.7727273 72.6026077,14.7727273 C76.1702873,14.7727273 78.322221,15.7332998 80.3892099,17.4849322 L77.642663,20.7904319 C76.1136574,19.5190859 74.7545414,18.7845304 72.4610331,18.7845304 C69.2897624,18.7845304 66.7697348,21.5814917 66.7697348,24.9434957 L66.7697348,25 C66.7697348,28.6162732 69.2614475,31.2719739 72.7724972,31.2719739 C74.3581326,31.2719739 75.7738784,30.876444 76.8781602,30.0853842 L76.8781602,27.2601708 L72.489348,27.2601708 L72.489348,23.5026369 L81.0970829,23.5026369 L81.0970829,32.0912858 C79.0584088,33.814666 76.255232,35.2272727 72.6309226,35.2272727 Z M83.5887956,34.8882471 L92.0832707,14.9704922 L96.1039889,14.9704922 L104.598464,34.8882471 L100.039762,34.8882471 L98.2276077,30.452662 L89.8463922,30.452662 L88.0342376,34.8882471 L83.5887956,34.8882471 Z M91.4037127,26.6103717 L96.6702873,26.6103717 L94.037,20.1971371 L91.4037127,26.6103717 Z M107.302538,34.8882471 L107.302538,19.123556 L101.27146,19.123556 L101.27146,15.1117529 L117.694112,15.1117529 L117.694112,19.123556 L111.663035,19.123556 L111.663035,34.8882471 L107.302538,34.8882471 Z M121.035273,34.8882471 L121.035273,15.1117529 L135.985549,15.1117529 L135.985549,18.9822953 L125.367455,18.9822953 L125.367455,22.9940984 L134.711378,22.9940984 L134.711378,26.8646409 L125.367455,26.8646409 L125.367455,31.0177047 L136.127123,31.0177047 L136.127123,34.8882471 L121.035273,34.8882471 Z" id="VGATE" fill-rule="nonzero"></path>
                <path d="M16.4759765,29.8205556 L12.7432556,24.885 L24.0850704,10.0116667 L33.1128654,22.0238889 L25.6546617,22.0238889 L24.0499926,19.8888889 L16.4759765,29.8205556 Z M25.6546617,27.9766667 L33.1128654,27.9766667 L16.5578247,50 L0.00278395062,27.9766667 L7.45931728,27.9766667 L16.5578247,40.0794444 L25.6546617,27.9766667 Z M16.5377802,2.84217094e-14 L20.273842,4.95055556 L7.45709012,22.0233333 L1.77635684e-14,22.0233333 L16.5377802,2.84217094e-14 Z" id="形状结合"></path>
            </g>
        </g>
    </g>
</svg>