<?xml version="1.0" encoding="UTF-8"?>
<svg width="24px" height="24px" viewBox="0 0 24 24" version="1.1" xmlns="http://www.w3.org/2000/svg" xmlns:xlink="http://www.w3.org/1999/xlink">
    <!-- Generator: Sketch 58 (84663) - https://sketch.com -->
    <title>arrow</title>
    <desc>Created with Sketch.</desc>
    <g id="页面-1" stroke="none" stroke-width="1" fill="none" fill-rule="evenodd">
        <g id="首页备份-10" transform="translate(-1233.000000, -822.000000)" fill="#2F5BEA" fill-rule="nonzero">
            <g id="编组-2" transform="translate(1233.000000, 822.000000)">
                <path d="M17.1869508,6.4304111 L21.3754479,10.7847355 C21.6500642,11.0480233 21.7981731,11.4250235 21.7978955,11.7865483 L21.796,11.869 L21.7978955,11.9522959 C21.7981384,12.2686302 21.6847729,12.5968127 21.4724563,12.8502979 L21.3754479,12.9541088 L17.1869508,17.3084332 C16.6501451,17.8753459 15.7577308,17.8839334 15.2074285,17.3240918 L15.2074285,17.3240918 L15.1880777,17.3040104 C14.9335961,17.0459787 14.7863886,16.6827028 14.7865353,16.3047813 C14.7865352,15.9270808 14.9337668,15.5634472 15.1972231,15.2964063 L15.1972231,15.2964063 L17.0443941,13.3821561 L4.40402421,13.3821561 C3.62642403,13.3821561 3,12.7329054 3,11.947531 C3.00004915,11.9211814 3.00079741,11.8949731 3.00222712,11.8689262 C3.00079741,11.8438712 3.00004915,11.8176629 3,11.7913132 C3,11.0059389 3.62642403,10.3566881 4.40402421,10.3566881 L17.0443941,10.3566881 L15.1972231,8.44243792 C14.9337668,8.17539707 14.7865352,7.8117635 14.7865353,7.43406295 C14.7863886,7.05614142 14.9335961,6.69286554 15.1880777,6.43483382 L15.2074285,6.41475248 C15.7577308,5.85491086 16.6501451,5.86349838 17.1869508,6.4304111 Z" id="形状结合"></path>
            </g>
        </g>
    </g>
</svg>