<svg xmlns="http://www.w3.org/2000/svg" width="20" height="20" viewBox="0 0 20 20">
  <path fill="#7E8085" d="M10,11.3508712 L2.48958642,18.8612848 C2.24098865,19.1098825 1.83803809,19.1099886 1.58566846,18.857619 C1.33504614,18.6069967 1.33259396,18.2031098 1.58200268,17.953701 L9.09241626,10.4432875 L1.58200268,2.93287387 C1.33259396,2.68346515 1.33504614,2.27957825 1.58566846,2.02895592 C1.83803809,1.7765863 2.24098865,1.77669236 2.48958642,2.02529013 L10,9.53570371 L17.5104136,2.02529013 C17.7590114,1.77669236 18.1619619,1.7765863 18.4143315,2.02895592 C18.6649539,2.27957825 18.667406,2.68346515 18.4179973,2.93287387 L10.9075837,10.4432875 L18.4179973,17.953701 C18.667406,18.2031098 18.6649539,18.6069967 18.4143315,18.857619 C18.1619619,19.1099886 17.7590114,19.1098825 17.5104136,18.8612848 L10,11.3508712 Z"/>
</svg>
