<svg xmlns="http://www.w3.org/2000/svg" width="52" height="52" viewBox="0 0 52 52">
  <g fill="none" fill-rule="evenodd">
    <g transform="translate(7.49 7.454)">
      <path fill="#FF8C71" d="M22.881371 7.29903894C17.2829868 4.83232784 10.5403933 5.93724971 5.96834761 10.6157654 5.03017264 11.5755866 4.25682515 12.6354096 3.61284806 13.7520964L10.1819894 20.4728057M36.013034 20.4728057C38.5354948 26.4171774 37.4400484 33.586106 32.7433223 38.4539221 31.7857848 39.4463402 30.7284835 40.2644009 29.6144537 40.9456113L22.881371 33.9672595"/>
      <path fill="#FFDF7B" d="M18.3423028,36.1284806 L7.22569611,25.0118738 C7.22569611,25.0118738 16.7210901,1.3893302 43.3541767,0 C41.8489052,26.5171453 18.3423028,36.1284806 18.3423028,36.1284806 Z"/>
      <path fill="#FF8C71" d="M0,38.5370459 C0,35.8770263 2.15711115,33.7199152 4.81713074,33.7199152 C7.47715034,33.7199152 9.63426149,35.8770263 9.63426149,38.5370459 C9.63426149,41.1970655 7.47715034,43.3541767 4.81713074,43.3541767 C3.73327633,43.3541767 0,43.3541767 0,43.3541767 C0,43.3541767 0,40.1141745 0,38.5370459 Z"/>
      <circle cx="24.688" cy="18.666" r="4.215"/>
    </g>
    <g stroke="#111" stroke-width="2" transform="translate(1.963 1.926)">
      <path d="M27.6985018 3.61284806L39.7413286 15.6556749M22.881371 7.29903894C17.2829868 4.83232784 10.5403933 5.93724971 5.96834761 10.6157654 5.03017264 11.5755866 4.25682515 12.6354096 3.61284806 13.7520964L10.1819894 20.4728057M36.013034 20.4728057C38.5354948 26.4171774 37.4400484 33.586106 32.7433223 38.4539221 31.7857848 39.4463402 30.7284835 40.2644009 29.6144537 40.9456113L22.881371 33.9672595"/>
      <path stroke-linecap="square" d="M18.3423028 36.1284806L7.22569611 25.0118738C7.22569611 25.0118738 16.7210901 1.3893302 43.3541767 0 41.8489052 26.5171453 18.3423028 36.1284806 18.3423028 36.1284806zM0 38.5370459C0 35.8770263 2.15711115 33.7199152 4.81713074 33.7199152 7.47715034 33.7199152 9.63426149 35.8770263 9.63426149 38.5370459 9.63426149 41.1970655 7.47715034 43.3541767 4.81713074 43.3541767 3.73327633 43.3541767 0 43.3541767 0 43.3541767 0 43.3541767 0 40.1141745 0 38.5370459z"/>
      <circle cx="24.688" cy="18.666" r="4.215" stroke-linecap="square"/>
    </g>
  </g>
</svg>
