<svg xmlns="http://www.w3.org/2000/svg" width="52" height="52" viewBox="0 0 52 52">
  <g fill="none">
    <g transform="translate(5.064 8.432)">
      <path fill="#FFDF7B" d="M23.8579826,33.3791211 L25.3241386,34.0970353 C27.5554882,35.1896323 30.6471229,35.8015214 33.8376021,35.8015214 C40.5400931,35.8015214 45.7665934,33.2859263 45.7665934,29.8515733 L45.7665934,5.9499481 C45.7665934,2.51559511 40.5400931,7.531753e-13 33.8376021,7.531753e-13 C27.1351112,7.531753e-13 21.9086108,2.51559511 21.9086108,5.9499481 L21.9086108,16.3589536 L20.4424549,15.6410394 C18.2111052,14.5484424 15.1194706,13.9365532 11.9289913,13.9365532 C5.22650039,13.9365532 1.12265752e-12,16.4521484 1.12265752e-12,19.8865013 L1.12265752e-12,35.816069 C1.12265752e-12,39.250422 5.22650039,41.7660171 11.9289913,41.7660171 C18.6426251,41.7660171 23.8579826,39.2596831 23.8579826,35.816069 L23.8579826,33.3791211 Z"/>
      <path fill="#D5F7D9" d="M23.8579826,33.3791211 C23.8579826,25.395302 23.8579826,20.8395719 23.8579826,19.7119307 C23.8579826,18.0204691 22.6738046,16.7336364 20.4424549,15.6410394 C18.2111052,14.5484424 15.1194706,13.9365532 11.9289913,13.9365532 C5.22650039,13.9365532 4.15312229e-12,16.4521484 4.15312229e-12,19.8865013 L4.15312229e-12,35.816069 C4.15312229e-12,39.250422 5.22650039,41.7660171 11.9289913,41.7660171 C18.6426251,41.7660171 23.8579826,39.2596831 23.8579826,35.816069 L23.8579826,33.3791211 Z"/>
    </g>
    <path fill="#111" d="M24.978144,34.5606983 L26.2976843,35.2068211 C28.5441093,36.3067998 31.6508706,36.9216828 34.8559307,36.9216828 C41.6076867,36.9216828 46.8867548,34.380786 46.8867548,30.8699019 L46.8867548,6.96827662 C46.8867548,3.45739246 41.6076867,0.916495673 34.8559307,0.916495673 C28.1041747,0.916495673 22.8251065,3.45739246 22.8251065,6.96827662 L22.8251065,17.2140334 L21.5055662,16.5679106 C19.2591412,15.4679319 16.1523799,14.8530489 12.9473198,14.8530489 C6.19556385,14.8530489 0.916495673,17.3939457 0.916495673,20.9048299 L0.916495673,36.8343975 C0.916495673,40.3452817 6.19556385,42.8861785 12.9473198,42.8861785 C19.7102302,42.8861785 24.978144,40.3545876 24.978144,36.8343975 L24.978144,34.5606983 Z M3.06953313,32.5676839 L4.38907349,33.2138067 C6.63549845,34.3137854 9.74225979,34.9286684 12.9473198,34.9286684 C16.1523799,34.9286684 19.2591412,34.3137854 21.5055662,33.2138067 L22.8251065,32.5676839 L22.8251065,36.8343975 C22.8251065,38.8143024 18.2767483,40.733141 12.9473198,40.733141 C7.60740734,40.733141 3.06953313,38.8241795 3.06953313,36.8343975 L3.06953313,32.5676839 Z M22.8251065,28.8768875 C22.8251065,30.8567924 18.2767483,32.775631 12.9473198,32.775631 C7.60740734,32.775631 3.06953313,30.8666695 3.06953313,28.8768875 L3.06953313,24.5956263 L4.38907349,25.2417491 C6.63549845,26.3417278 9.74225979,26.9566108 12.9473198,26.9566108 C16.1523799,26.9566108 19.2591412,26.3417278 21.5055662,25.2417491 L22.8251065,24.5956263 L22.8251065,28.8768875 Z M24.978144,26.5886407 L26.2976843,27.2347635 C28.5441093,28.3347422 31.6508706,28.9496252 34.8559307,28.9496252 C38.0647547,28.9496252 41.1703978,28.3373058 43.4146663,27.2400361 L44.7337174,26.5951245 L44.7337174,30.8699019 C44.7337174,32.8498068 40.1853592,34.7686454 34.8559307,34.7686454 C29.5160182,34.7686454 24.978144,32.8596839 24.978144,30.8699019 L24.978144,26.5886407 Z M24.978144,18.6311307 L26.2976843,19.2772535 C28.5441093,20.3772322 31.6508706,20.9921152 34.8559307,20.9921152 C38.0609907,20.9921152 41.1677521,20.3772322 43.414177,19.2772535 L44.7337174,18.6311307 L44.7337174,22.8978443 C44.7337174,24.8777492 40.1853592,26.7965878 34.8559307,26.7965878 C29.5160182,26.7965878 24.978144,24.8876263 24.978144,22.8978443 L24.978144,18.6311307 Z M44.7337174,14.9403342 C44.7337174,16.9202391 40.1853592,18.8390777 34.8559307,18.8390777 C29.5160182,18.8390777 24.978144,16.9301162 24.978144,14.9403342 L24.978144,10.6590731 L26.2976843,11.3051959 C28.5441093,12.4051746 31.6508706,13.0200576 34.8559307,13.0200576 C38.0609907,13.0200576 41.1677521,12.4051746 43.414177,11.3051959 L44.7337174,10.6590731 L44.7337174,14.9403342 Z M34.8559307,3.06953313 C40.1958432,3.06953313 44.7337174,4.97849463 44.7337174,6.96827662 C44.7337174,8.94818152 40.1853592,10.8670201 34.8559307,10.8670201 C29.5160182,10.8670201 24.978144,8.95805862 24.978144,6.96827662 C24.978144,4.98837173 29.5265022,3.06953313 34.8559307,3.06953313 Z M12.9473198,17.0060864 C18.2767483,17.0060864 22.8251065,18.924925 22.8251065,20.9048299 C22.8251065,22.8847348 18.2767483,24.8035734 12.9473198,24.8035734 C7.60740734,24.8035734 3.06953313,22.8946119 3.06953313,20.9048299 C3.06953313,18.924925 7.6178913,17.0060864 12.9473198,17.0060864 Z" transform="translate(0 1)"/>
  </g>
</svg>
