<svg xmlns="http://www.w3.org/2000/svg" width="52" height="52" viewBox="0 0 52 52">
  <g fill="none" fill-rule="evenodd">
    <path fill="#FF8875" d="M27.4897959,38.0294118 L38.46208,28.95 L48.6216024,38.9273756 C51.4662686,41.7210407 51.4662686,46.111086 48.6216024,48.9047511 C45.7769361,51.6984163 41.3067463,51.6984163 38.46208,48.9047511 L27.4897959,38.0294118 Z M13.3594004,19.15 L7.89795918,13.6862832 L13.3594004,8.125 L18.9183673,13.6862832 L17.553007,17.7840708 L13.3594004,19.15 Z"/>
    <path fill="#D5EBF6" d="M50.1727885,14.7245277 L44.2836334,20.7785325 L37.196684,13.4932047 L43.0858391,7.43919984 C41.7882287,7.02875883 40.2909859,6.82353833 38.7937431,6.92614858 C33.2040365,7.43919984 28.7123081,12.5697124 28.8121242,18.3158865 C28.8121242,19.4445992 29.0117566,20.573312 29.3112052,21.5994145 L10.1464971,39.0431572 C7.25182761,41.6084135 7.15201142,46.2258748 9.8470485,48.9963516 C12.5420856,51.7668284 16.9339979,51.6642181 19.5292187,48.6885209 L36.4979707,28.9873526 C38.1948459,29.5004039 40.0913535,29.7056244 42.0876773,29.2951834 C46.0803248,28.4743014 49.374259,25.3959938 50.4722371,21.394194 C50.971318,18.931548 50.7716856,16.6741225 50.1727885,14.7245277 Z"/>
    <g stroke="#111" stroke-width="2" transform="translate(3 2)">
      <path d="M19.5918367 31.1294118L30.5641208 42.0047511C33.4087871 44.7984163 37.8789769 44.7984163 40.7236432 42.0047511L40.7236432 42.0047511C43.5683094 39.211086 43.5683094 34.8210407 40.7236432 32.0273756L30.5641208 22.05M15.9183673 18.375L9.79591837 12.25"/>
      <path stroke-linecap="square" d="M42.2748293,7.82452768 L36.3856742,13.8785325 L29.2987249,6.59320466 L35.18788,0.539199837 C33.8902695,0.128758832 32.3930267,-0.0764616709 30.8957839,0.0261485804 C25.3060773,0.539199837 20.8143489,5.6697124 20.9141651,11.4158865 C20.9141651,12.5445992 21.1137974,13.673312 21.413246,14.6994145 L2.24853788,32.1431572 C-0.646131575,34.7084135 -0.745947763,39.3258748 1.94908932,42.0963516 L1.94908932,42.0963516 C4.6441264,44.8668284 9.03603867,44.7642181 11.6312596,41.7885209 L28.6000115,22.0873526 C30.2968867,22.6004039 32.1933943,22.8056244 34.1897181,22.3951834 C38.1823656,21.5743014 41.4762998,18.4959938 42.5742779,14.494194 C43.0733588,12.031548 42.8737264,9.77412245 42.2748293,7.82452768 Z"/>
      <polygon stroke-linecap="square" points="5.461 12.25 9.655 10.884 11.02 6.786 5.461 1.225 0 6.786"/>
      <path stroke-linecap="square" d="M30.6122449,31.85 L34.2857143,35.525"/>
    </g>
  </g>
</svg>
