<svg xmlns="http://www.w3.org/2000/svg" width="20" height="20" viewBox="0 0 20 20">
  <path fill="#7E8085" d="M18.4924309,16.8888889 L1.50756913,16.8888889 C1.1362466,16.8888889 0.833333333,16.5904121 0.833333333,16.2222222 C0.833333333,15.8514654 1.13519898,15.5555556 1.50756913,15.5555556 L18.4924309,15.5555556 C18.8637534,15.5555556 19.1666667,15.8540324 19.1666667,16.2222222 C19.1666667,16.592979 18.864801,16.8888889 18.4924309,16.8888889 Z M18.4924309,10.5 L1.50756913,10.5 C1.1362466,10.5 0.833333333,10.2015232 0.833333333,9.83333333 C0.833333333,9.46257655 1.13519898,9.16666667 1.50756913,9.16666667 L18.4924309,9.16666667 C18.8637534,9.16666667 19.1666667,9.4651435 19.1666667,9.83333333 C19.1666667,10.2040901 18.864801,10.5 18.4924309,10.5 Z M0.833333333,3.44444444 C0.833333333,3.07368766 1.13519898,2.77777778 1.50756913,2.77777778 L18.4924309,2.77777778 C18.8637534,2.77777778 19.1666667,3.07625461 19.1666667,3.44444444 C19.1666667,3.81520123 18.864801,4.11111111 18.4924309,4.11111111 L1.50756913,4.11111111 C1.1362466,4.11111111 0.833333333,3.81263428 0.833333333,3.44444444 Z"/>
</svg>
