<svg xmlns="http://www.w3.org/2000/svg" width="68" height="68" viewBox="0 0 68 68">
  <g fill="none" fill-rule="evenodd">
    <circle cx="34" cy="34" r="34" fill="#FFF"/>
    <path fill="#C9CDD5" fill-rule="nonzero" d="M38.6337773,24.2923125 L38.6337773,24.2923125 C38.2288783,23.9025625 37.5733773,23.9025625 37.1695133,24.2923125 L28.6065723,32.5558725 C27.7978093,33.3363625 27.7978093,34.6025325 28.6065723,35.3830125 L37.2316463,43.7075425 C37.6324033,44.0932925 38.2796203,44.0982825 38.6855543,43.7175325 L38.6855543,43.7175325 C39.1008093,43.3287925 39.1049513,42.6882125 38.6969453,42.2934725 L30.8029683,34.6764825 C30.3980693,34.2857425 30.3980693,33.6531525 30.8029683,33.2624125 L38.6337773,25.7053825 C39.0386763,25.3156325 39.0386763,24.6830525 38.6337773,24.2923125" transform="matrix(-1 0 0 1 67 0)"/>
  </g>
</svg>
