<svg xmlns="http://www.w3.org/2000/svg" width="116" height="116" viewBox="0 0 116 116">
  <g fill="none" fill-rule="evenodd">
    <path stroke="#C0C6D3" stroke-dasharray="0 11" stroke-linecap="round" stroke-width="3" d="M58,114 C88.927946,114 114,88.927946 114,58 C114,27.072054 88.927946,2 58,2 C27.072054,2 2,27.072054 2,58 C2,88.927946 27.072054,114 58,114 Z"/>
    <circle cx="58" cy="58" r="49" fill="#545F75"/>
    <polygon points="34 34 82 34 82 82 34 82"/>
    <g fill-rule="nonzero" transform="translate(40 42)">
      <path fill="#FFF" d="M31.7142857,4.28571429 L6,4.28571429 L6,2.85714286 C6,1.27857143 7.27857143,0 8.85714286,0 L36,0 C37.5785714,0 38.8571429,1.27857143 38.8571429,2.85714286 L38.8571429,23.8571429 C38.8571429,25.4357143 37.5785714,26.7142857 36,26.7142857 L34.5714286,26.7142857 L34.5714286,7.14285714 C34.5714286,5.56428571 33.2928571,4.28571429 31.7142857,4.28571429 Z"/>
      <path stroke="#FFF" stroke-width="3" d="M27.3913043,9 L2.60869565,9 C1.1673913,9 0,10.2635294 0,11.8235294 L0,30.1764706 C0,31.7364706 1.1673913,33 2.60869565,33 L27.3913043,33 C28.8326087,33 30,31.7364706 30,30.1764706 L30,11.8235294 C30,10.2635294 28.8326087,9 27.3913043,9 Z"/>
      <path fill="#FFF" d="M20.8571429,22.5714286 L16.5714286,22.5714286 L16.5714286,26.8571429 C16.5714286,27.6457143 15.9314286,28.2857143 15.1428571,28.2857143 L15.1428571,28.2857143 C14.3542857,28.2857143 13.7142857,27.6457143 13.7142857,26.8571429 L13.7142857,22.5714286 L9.42857143,22.5714286 C8.64,22.5714286 8,21.9314286 8,21.1428571 L8,21.1428571 C8,20.3542857 8.64,19.7142857 9.42857143,19.7142857 L13.7142857,19.7142857 L13.7142857,15.4285714 C13.7142857,14.64 14.3542857,14 15.1428571,14 L15.1428571,14 C15.9314286,14 16.5714286,14.64 16.5714286,15.4285714 L16.5714286,19.7142857 L20.8571429,19.7142857 C21.6457143,19.7142857 22.2857143,20.3542857 22.2857143,21.1428571 L22.2857143,21.1428571 C22.2857143,21.9314286 21.6457143,22.5714286 20.8571429,22.5714286 Z"/>
    </g>
  </g>
</svg>
