<svg xmlns="http://www.w3.org/2000/svg" width="116" height="116" viewBox="0 0 116 116">
  <g fill="none" fill-rule="evenodd">
    <path stroke="#C0C6D3" stroke-dasharray="0 11" stroke-linecap="round" stroke-width="3" d="M58,114 C88.927946,114 114,88.927946 114,58 C114,27.072054 88.927946,2 58,2 C27.072054,2 2,27.072054 2,58 C2,88.927946 27.072054,114 58,114 Z"/>
    <circle cx="58" cy="58" r="49" fill="#545F75"/>
    <g transform="translate(42 42)">
      <path stroke="#FFF" stroke-linecap="round" stroke-linejoin="round" stroke-width="3" d="M4.35230224,26.1818182 L4.35230224,0 L30.4661157,0 L30.4661157,26.1818182 C30.4661157,29.3949091 27.8677913,32 24.663046,32"/>
      <path stroke="#FFF" stroke-linecap="round" stroke-linejoin="round" stroke-width="3" d="M18.8599764 26.1818182L18.8599764 26.1818182 0 26.1818182 0 26.1818182C0 29.3949091 2.59832444 32 5.80306966 32L24.663046 32C21.4583008 32 18.8599764 29.3949091 18.8599764 26.1818182zM16.6838253 13.0909091L24.663046 13.0909091M10.1553719 13.0909091L11.9285321 13.0909091M16.6838253 18.9090909L24.663046 18.9090909M10.1553719 18.9090909L11.9285321 18.9090909M16.6838253 7.27272727L24.663046 7.27272727M10.1553719 7.27272727L11.9285321 7.27272727"/>
      <path fill="#FFF" fill-rule="nonzero" d="M18.8599764,26.1818182 L18.8599764,26.1818182 L0,26.1818182 L0,26.1818182 C0,29.3949091 2.59832444,32 5.80306966,32 L24.663046,32 C21.4583008,32 18.8599764,29.3949091 18.8599764,26.1818182 Z"/>
    </g>
  </g>
</svg>
