<?xml version="1.0" encoding="UTF-8"?>
<svg width="34px" height="34px" viewBox="0 0 34 34" version="1.1" xmlns="http://www.w3.org/2000/svg" xmlns:xlink="http://www.w3.org/1999/xlink">
    <!-- Generator: Sketch 57.1 (83088) - https://sketch.com -->
    <title>BTC</title>
    <desc>Created with Sketch.</desc>
    <g id="页面-1" stroke="none" stroke-width="1" fill="none" fill-rule="evenodd">
        <g id="首页备份-8" transform="translate(-1461.000000, -1514.000000)">
            <g id="编组-2备份-7" transform="translate(1260.000000, 1493.000000)">
                <g id="btc-icon备份" transform="translate(201.000000, 21.000000)">
                    <path d="M17,0.25 C7.74923044,0.25 0.25,7.74923044 0.25,17 C0.25,26.2507696 7.74923044,33.75 17,33.75 C26.2507696,33.75 33.75,26.2507696 33.75,17 C33.75,7.74923044 26.2507696,0.25 17,0.25 Z" id="Combined-Shape" stroke="#FE7F00" stroke-width="0.5" fill="#FEF1E1"></path>
                    <g id="分组" transform="translate(11.333333, 8.500000)" fill="#FE7F00">
                        <path d="M9.82775392,6.75840286 C9.4158695,8.41010521 6.87084855,7.57092713 6.04541384,7.36519315 L6.77381208,4.44576969 C7.59883033,4.65150367 10.2571299,5.0354849 9.82775392,6.75840286 M9.37547234,11.4698776 C8.92360722,13.2852509 5.86633366,12.3036416 4.87514566,12.0575104 L5.6785077,8.83864825 C6.6696957,9.08602878 9.84816073,9.57579227 9.37547234,11.4698776 M12.7167754,6.78464019 C12.9816475,5.0113299 11.6314662,4.05804027 9.78527443,3.42209738 L10.3845684,1.01992412 L8.92194136,0.655516767 L8.33930606,2.99438727 C7.95490837,2.89860019 7.56009903,2.80822717 7.16737202,2.71868707 L7.75458844,0.364407351 L6.29362731,0 L5.69391692,2.40134033 C5.37615371,2.32887532 5.06380456,2.25724325 4.76061764,2.18186299 L4.76186704,2.17436661 L2.74575733,1.67085976 L2.35677852,3.23260556 C2.35677852,3.23260556 3.44167126,3.48123549 3.41834919,3.49664471 C4.01056319,3.64448998 4.1180113,4.03638406 4.10010329,4.34706735 L3.41751626,7.08366245 C3.45874635,7.09407409 3.51122101,7.10906684 3.56994265,7.13238892 C3.52079971,7.12031141 3.46874152,7.10698452 3.41543393,7.09407409 L2.45922904,10.9276394 C2.38634757,11.1075525 2.20268626,11.3774222 1.78871951,11.2749717 C1.80329581,11.2962114 0.72631591,11.0096831 0.72631591,11.0096831 L0,12.6834582 L1.90324754,13.1578124 C2.25682679,13.2465196 2.60374258,13.3393914 2.9456608,13.4268492 L2.34011989,15.8565091 L3.80066456,16.2209165 L4.39995848,13.8170774 C4.79893247,13.9253584 5.18624543,14.0253101 5.56564554,14.1194314 L4.96843395,16.5120259 L6.43022801,16.8764333 L7.03535244,14.4513544 C9.52873166,14.9232099 11.4036595,14.7328851 12.1932782,12.4777242 C12.8288046,10.6619344 12.1616268,9.61452356 10.8493439,8.93152007 C11.8047159,8.71120979 12.5247848,8.08276329 12.7167754,6.78464019" id="Fill-3"></path>
                    </g>
                </g>
            </g>
        </g>
    </g>
</svg>