<?xml version="1.0" encoding="UTF-8"?>
<svg width="34px" height="34px" viewBox="0 0 34 34" version="1.1" xmlns="http://www.w3.org/2000/svg" xmlns:xlink="http://www.w3.org/1999/xlink">
    <!-- Generator: Sketch 57.1 (83088) - https://sketch.com -->
    <title>eth</title>
    <desc>Created with Sketch.</desc>
    <g id="页面-1" stroke="none" stroke-width="1" fill="none" fill-rule="evenodd">
        <g id="首页备份-8" transform="translate(-1176.000000, -1950.000000)">
            <g id="eth-icon备份-3" transform="translate(1176.000000, 1950.000000)">
                <path d="M17,0.25 C7.74923044,0.25 0.25,7.74923044 0.25,17 C0.25,26.2507696 7.74923044,33.75 17,33.75 C26.2507696,33.75 33.75,26.2507696 33.75,17 C33.75,7.74923044 26.2507696,0.25 17,0.25 Z" id="Rectangle-3" stroke="#5BC500" stroke-width="0.5" fill="#F8FFF2"></path>
                <g id="eth" transform="translate(10.200000, 6.800000)">
                    <g id="Group" opacity="0.6" transform="translate(0.687799, 7.529151)" fill="#5BC500">
                        <polygon id="Path" points="6.27429238 0.00984202726 0.0147630409 2.85664841 6.27429238 6.55479016 12.5313612 2.85664841"></polygon>
                    </g>
                    <g id="Group" opacity="0.45" transform="translate(0.687799, 0.000000)" fill="#82C53C">
                        <polygon id="Path" points="0.0147630409 10.3857993 6.27429238 14.083941 6.27429238 0"></polygon>
                    </g>
                    <g id="Group" opacity="0.8" transform="translate(6.962091, 0.000000)" fill="#5BC500">
                        <polygon id="Path" points="0 0 0 14.083941 6.25706883 10.3857993"></polygon>
                    </g>
                    <g id="Group" opacity="0.45" transform="translate(0.687799, 11.564382)" fill="#82C53C">
                        <polygon id="Path" points="0.0147630409 0.00738152045 6.27429238 8.82583795 6.27429238 3.70552326"></polygon>
                    </g>
                    <g id="Group" opacity="0.8" transform="translate(6.962091, 11.564382)" fill="#5BC500">
                        <polygon id="Path" points="0 3.70552326 0 8.82583795 6.26198984 0.00738152045"></polygon>
                    </g>
                </g>
            </g>
        </g>
    </g>
</svg>