<?xml version="1.0" encoding="UTF-8"?>
<svg width="34px" height="34px" viewBox="0 0 34 34" version="1.1" xmlns="http://www.w3.org/2000/svg" xmlns:xlink="http://www.w3.org/1999/xlink">
    <!-- Generator: Sketch 57.1 (83088) - https://sketch.com -->
    <title>usd@1x</title>
    <desc>Created with Sketch.</desc>
    <defs>
        <linearGradient x1="33.7917091%" y1="-10.4966906%" x2="100.605856%" y2="87.6369925%" id="linearGradient-1">
            <stop stop-color="#0B30E4" offset="0%"></stop>
            <stop stop-color="#0D6CEF" offset="31.4739301%"></stop>
            <stop stop-color="#0998F3" offset="49.1836977%"></stop>
            <stop stop-color="#00C3FF" offset="71.3239784%"></stop>
            <stop stop-color="#00ECFF" offset="100%"></stop>
        </linearGradient>
    </defs>
    <g id="页面-1" stroke="none" stroke-width="1" fill="none" fill-rule="evenodd">
        <g id="首页备份-8" transform="translate(-1461.000000, -1950.000000)">
            <g id="usd-icon备份-3" transform="translate(1461.000000, 1950.000000)">
                <path d="M17,0.25 C7.74923044,0.25 0.25,7.74923044 0.25,17 C0.25,26.2507696 7.74923044,33.75 17,33.75 C26.2507696,33.75 33.75,26.2507696 33.75,17 C33.75,7.74923044 26.2507696,0.25 17,0.25 Z" id="Rectangle-3" stroke-opacity="0.67" stroke="#007AFF" stroke-width="0.5" fill="#F2F8FF"></path>
                <path d="M19.6616898,16.1313428 C18.9106683,15.7163046 18.1122533,15.400085 17.3217043,15.0720072 C16.8631464,14.8822754 16.4243917,14.6609217 16.0370227,14.3526076 C15.274143,13.7438849 15.4203945,12.7556986 16.3137149,12.3643769 C16.5666905,12.2537 16.8315244,12.2181253 17.1003111,12.2023144 C18.1359303,12.1469759 19.1202033,12.3367077 20.0569643,12.7873206 C20.5234277,13.0126271 20.6775452,12.9414777 20.835655,12.45529 C21.0016703,11.9414332 21.1400164,11.4196709 21.294213,10.9018613 C21.3969448,10.5540197 21.270457,10.3247605 20.9423791,10.178509 C20.3415619,9.91367507 19.7249732,9.72394332 19.0766835,9.62117195 C18.2308357,9.49073137 18.2308357,9.48677863 18.2268434,8.63693848 C18.2229302,7.43925678 18.2229302,7.43925678 17.0212562,7.43925678 C16.8473354,7.43925678 16.6734147,7.43530403 16.4994939,7.43925678 C15.9382041,7.45506776 15.8433382,7.55388638 15.8275272,8.1191289 C15.8196218,8.37210457 15.8275272,8.62508024 15.8235745,8.88200866 C15.8196218,9.63303019 15.815669,9.62117195 15.0962694,9.88205312 C13.3570617,10.5144923 12.2819151,11.7003158 12.1672855,13.5976333 C12.0645141,15.2775499 12.9420235,16.4119877 14.3215314,17.2381509 C15.1713716,17.7480154 16.1121249,18.0484636 17.0133507,18.4476513 C17.365145,18.6018479 17.7011283,18.7797214 17.993671,19.024752 C18.8592826,19.7401989 18.7011728,20.9299751 17.6734591,21.380588 C17.1240671,21.6217054 16.5429741,21.6809966 15.9461096,21.6058944 C15.02512,21.4912648 14.1436579,21.2501869 13.3135815,20.8192982 C12.8273939,20.5663621 12.6850951,20.6335192 12.5190798,21.1592738 C12.376781,21.6138395 12.2502931,22.0723183 12.1238053,22.5308368 C11.9538373,23.147465 12.0170812,23.293756 12.6060402,23.5822669 C13.3570617,23.9459589 14.1594689,24.1316984 14.9776871,24.2621785 C15.6180318,24.3649104 15.6377955,24.3925796 15.645701,25.0566407 C15.6496537,25.3570493 15.6496537,25.6614107 15.6536065,25.9618588 C15.6575592,26.3412828 15.8393855,26.5626365 16.2307072,26.570542 C16.6734147,26.5784475 17.1200748,26.5784475 17.5627823,26.5665893 C17.9264743,26.5586838 18.1122533,26.3610465 18.1122533,25.9934413 C18.1122533,25.5823558 18.132017,25.1673176 18.1161665,24.7562717 C18.0964028,24.3372412 18.2782291,24.1238325 18.6814091,24.0131161 C19.6103041,23.7601404 20.4008531,23.2620946 21.0096153,22.5189785 C22.7013506,20.4635512 22.0570927,17.4555518 19.6616898,16.1313428" id="Fill-1" fill="url(#linearGradient-1)"></path>
            </g>
        </g>
    </g>
</svg>