<svg xmlns="http://www.w3.org/2000/svg" width="20" height="20" viewBox="0 0 20 20">
  <path fill="#7E8085" fill-rule="evenodd" d="M5.63583165,10.0148646 C5.63583165,10.0148646 5.63583165,12.444062 8.06502895,12.444062 C10.4942263,12.444062 12.3495697,12.444062 12.3495697,12.444062 L12.3495697,14.2994054 C12.3495697,15.4380916 11.1729273,15.514004 11.1729273,15.514004 L7.52913129,15.514004 L3.84737913,19.1578 L3.84737913,15.514004 L2.63278047,15.514004 C2.63278047,15.514004 1.41818182,15.4760478 1.41818182,14.2994054 C1.41818182,13.1227629 1.41818182,8.22641213 1.41818182,8.22641213 C1.41818182,8.22641213 1.41818182,7.01181347 2.63278047,7.01181347 L5.63583165,7.01181347 L5.63583165,10.0148646 Z M16.5672195,2.72727273 C16.5672195,2.72727273 17.7818182,2.72727273 17.7818182,3.94187138 L17.7818182,10.0148646 C17.7818182,11.1915071 16.5672195,11.2294633 16.5672195,11.2294633 L15.3526209,11.2294633 L15.3526209,14.8732593 L11.6708687,11.2294633 L8.02707275,11.2294633 C8.02707275,11.2294633 6.8504303,11.1535509 6.8504303,10.0148646 C6.8504303,8.87559009 6.8504303,3.94187138 6.8504303,3.94187138 C6.8504303,3.94187138 6.8504303,2.72727273 8.06502895,2.72727273 C9.27962761,2.72727273 16.5672195,2.72727273 16.5672195,2.72727273 Z M9.46657321,5.19085923 C9.22754866,5.19085923 9.03378098,5.44323693 9.03378098,5.7545606 C9.03378098,6.06588427 9.22754866,6.31826197 9.46657321,6.31826197 L15.2593307,6.31826197 C15.4983552,6.31826197 15.6921229,6.06588427 15.6921229,5.7545606 C15.6921229,5.44323693 15.4983552,5.19085923 15.2593307,5.19085923 L9.46657321,5.19085923 Z M9.46657321,7.72554453 C9.22754866,7.72554453 9.03378098,7.97792223 9.03378098,8.2892459 C9.03378098,8.60056957 9.22754866,8.85294727 9.46657321,8.85294727 L15.2593307,8.85294727 C15.4983552,8.85294727 15.6921229,8.60056957 15.6921229,8.2892459 C15.6921229,7.97792223 15.4983552,7.72554453 15.2593307,7.72554453 L9.46657321,7.72554453 Z"/>
</svg>
