<?xml version="1.0" encoding="UTF-8"?>
<svg width="20px" height="20px" viewBox="0 0 20 20" version="1.1" xmlns="http://www.w3.org/2000/svg" xmlns:xlink="http://www.w3.org/1999/xlink">
    <!-- Generator: Sketch 57.1 (83088) - https://sketch.com -->
    <title>forum</title>
    <desc>Created with Sketch.</desc>
    <g id="页面-1" stroke="none" stroke-width="1" fill="none" fill-rule="evenodd">
        <g id="首页备份-8" transform="translate(-447.000000, -3736.000000)">
            <g id="Group-18" transform="translate(0.000000, 3559.000000)">
                <rect id="矩形" fill="#1E59F3" x="0" y="0" width="1920" height="300"></rect>
                <path d="M452.635832,184.011813 L452.635906,187.021833 C452.638204,187.164317 452.711744,189.444062 455.065029,189.444062 L455.065029,189.444062 L459.34957,189.444062 L459.34957,191.299405 C459.34957,192.438092 458.172927,192.514004 458.172927,192.514004 L454.529131,192.514004 L450.847379,196.1578 L450.847379,192.514004 L449.62478,192.513627 C449.519859,192.507807 448.418182,192.420017 448.418182,191.299405 L448.418182,191.299405 L448.418313,185.218412 C448.420936,185.11349 448.47602,184.011813 449.63278,184.011813 L449.63278,184.011813 L452.635832,184.011813 Z M463.57522,179.727404 C463.680141,179.730027 464.781818,179.785111 464.781818,180.941871 L464.781818,180.941871 L464.781818,187.014865 C464.781818,188.191507 463.56722,188.229463 463.56722,188.229463 L463.56722,188.229463 L462.352621,188.229463 L462.352621,191.873259 L458.670869,188.229463 L455.027073,188.229463 C455.027073,188.229463 453.85043,188.153551 453.85043,187.014865 L453.85043,187.014865 L453.850561,180.933871 C453.853184,180.82895 453.908268,179.727273 455.065029,179.727273 L455.065029,179.727273 Z M462.259331,184.725545 L456.466573,184.725545 C456.227549,184.725545 456.033781,184.977922 456.033781,185.289246 C456.033781,185.60057 456.227549,185.852947 456.466573,185.852947 L456.466573,185.852947 L462.259331,185.852947 C462.498355,185.852947 462.692123,185.60057 462.692123,185.289246 C462.692123,184.977922 462.498355,184.725545 462.259331,184.725545 L462.259331,184.725545 Z M462.259331,182.190859 L456.466573,182.190859 C456.227549,182.190859 456.033781,182.443237 456.033781,182.754561 C456.033781,183.065884 456.227549,183.318262 456.466573,183.318262 L456.466573,183.318262 L462.259331,183.318262 C462.498355,183.318262 462.692123,183.065884 462.692123,182.754561 C462.692123,182.443237 462.498355,182.190859 462.259331,182.190859 L462.259331,182.190859 Z" id="Combined-Shape" fill-opacity="0.9" fill="#FFFFFF"></path>
            </g>
        </g>
    </g>
</svg>