<svg xmlns="http://www.w3.org/2000/svg" width="20" height="20" viewBox="0 0 20 20">
  <path fill="#7E8085" fill-rule="evenodd" d="M840.563009,189.520019 C840.553089,188.456539 840.157222,187.879535 839.703088,187.127147 C839.498445,186.812887 839.262208,186.602408 839.057731,186.288232 C839.025889,186.117932 839.092408,185.990311 839.044894,185.542679 C838.999297,184.871565 838.763895,184.611488 838.714297,184.529297 C838.735553,184.350828 838.667366,182.879894 838.156299,182.009721 C836.597422,179.107782 833.644718,179.001917 833.283362,179 L833.279861,179 C832.918504,179.001917 829.9658,179.107865 828.407007,182.009721 C827.895857,182.879811 827.82767,184.350828 827.848926,184.529297 C827.799328,184.611488 827.563925,184.871565 827.518412,185.542679 C827.470898,185.990311 827.537418,186.117932 827.505575,186.288232 C827.301014,186.602492 827.064695,186.812971 826.860134,187.127147 C826.405917,187.879535 826.01005,188.456539 826.000214,189.520019 C825.992879,190.312836 826.172848,191.394238 826.707339,191.409076 C826.875639,191.395155 827.019348,191.278787 827.311601,190.93777 C827.398877,190.835157 827.706551,190.40428 827.768736,190.284744 C827.828753,190.44971 827.970795,191.600132 828.963921,192.199392 C827.943704,192.69954 827.444557,193.015883 827.427052,193.664991 C827.448391,194.040519 827.878852,194.539749 828.670502,194.772401 C829.667629,195.062737 830.827554,195.069239 831.793006,194.8265 C832.363841,194.683041 832.535641,194.539332 833.281611,194.111956 C834.027665,194.539332 834.199382,194.683125 834.770217,194.8265 C835.735668,195.069155 836.89551,195.062737 837.892721,194.772401 C838.684288,194.539749 839.114748,194.040519 839.136088,193.664991 C839.118666,193.015883 838.619519,192.69954 837.599301,192.199392 C838.592344,191.600216 838.734386,190.449793 838.794404,190.284744 C838.856672,190.40428 839.164346,190.835157 839.251538,190.93777 C839.543875,191.278871 839.6875,191.395155 839.8558,191.409076 C840.390291,191.394322 840.570344,190.312836 840.563009,189.520019 Z" transform="translate(-823 -177)"/>
</svg>
