<?xml version="1.0" encoding="UTF-8"?>
<svg width="20px" height="20px" viewBox="0 0 20 20" version="1.1" xmlns="http://www.w3.org/2000/svg" xmlns:xlink="http://www.w3.org/1999/xlink">
    <!-- Generator: Sketch 57.1 (83088) - https://sketch.com -->
    <title>telegram</title>
    <desc>Created with Sketch.</desc>
    <g id="页面-1" stroke="none" stroke-width="1" fill="none" fill-rule="evenodd">
        <g id="首页备份-8" transform="translate(-614.000000, -3736.000000)">
            <g id="Group-18" transform="translate(0.000000, 3559.000000)">
                <rect id="矩形" fill="#1E59F3" x="0" y="0" width="1920" height="300"></rect>
                <path d="M614.858859,186.502395 L618.815571,187.937585 L620.347062,192.724168 C620.445055,193.030731 620.83079,193.144045 621.08682,192.940615 L623.292358,191.193243 C623.523547,191.010172 623.852844,191.001049 624.09445,191.171492 L628.072456,193.978291 C628.346345,194.171764 628.734369,194.025908 628.803056,193.70427 L631.717157,180.081586 C631.792141,179.730243 631.436914,179.437141 631.092678,179.566531 L614.854223,185.654464 C614.453492,185.804659 614.456983,186.356039 614.858859,186.502395 Z M620.100246,187.173597 L627.833139,182.544996 C627.972115,182.462055 628.115099,182.644681 627.995755,182.752264 L621.613878,188.517502 C621.389558,188.720432 621.244857,188.992005 621.203874,189.286776 L620.98648,190.852468 C620.957689,191.061517 620.655523,191.082266 620.596166,190.879948 L619.760074,188.024865 C619.664313,187.699221 619.803862,187.351382 620.100246,187.173597 Z" id="XMLID_497_" fill-opacity="0.9" fill="#FFFFFF" fill-rule="nonzero"></path>
            </g>
        </g>
    </g>
</svg>