<svg xmlns="http://www.w3.org/2000/svg" width="20" height="20" viewBox="0 0 20 20">
  <g fill="#7E8085" transform="translate(1.535 2.646)">
    <path d="M12.4700677,5.29978695 C10.8076732,5.38661923 9.36210486,5.89059551 8.18848737,7.02912375 C7.00272499,8.17939689 6.46144137,9.58893055 6.60939805,11.3362301 C5.95964681,11.2557612 5.36782011,11.1671836 4.77261176,11.1170768 C4.5670578,11.0997685 4.32310564,11.1243492 4.14900474,11.2225991 C3.57106831,11.5487292 3.01698529,11.9169301 2.36028892,12.3274199 C2.48079234,11.7824273 2.55878867,11.3051771 2.6968549,10.8461441 C2.79841376,10.5087782 2.75136143,10.3210052 2.44057605,10.1012701 C0.44499724,8.69235457 -0.396163174,6.58383561 0.233334474,4.41306504 C0.815743428,2.40486864 2.24600339,1.18696232 4.18940284,0.552083109 C6.84196892,-0.314348843 9.8229559,0.56946411 11.4358982,2.67543773 C12.0184526,3.43616556 12.3756721,4.28997993 12.4700677,5.29978695 Z M4.81919139,4.62338242 C4.83449976,4.22634656 4.49047958,3.8686543 4.08180791,3.85669123 C3.6634276,3.8444009 3.31929834,4.1641313 3.30708073,4.57640281 C3.29471767,4.99423769 3.61430263,5.32909466 4.03573735,5.33978507 C4.45353587,5.35040275 4.80373757,5.030236 4.81919139,4.62338242 Z M8.81096716,3.85643669 C8.40080465,3.86399997 8.05423914,4.21332899 8.06151153,4.61192841 C8.06900208,5.02510897 8.40898608,5.34833012 8.83074805,5.34327581 C9.25360088,5.33818514 9.57431306,5.01150961 9.57031325,4.58963855 C9.56678614,4.17547623 9.22832934,3.84880069 8.81096716,3.85643669 Z"/>
    <path d="M16.2048737,15.6635174 C15.6784985,15.4291284 15.1956122,15.0774723 14.6815273,15.0237657 C14.1694059,14.9702773 13.6310676,15.2657179 13.0952746,15.3205154 C11.4632423,15.4874893 10.0011293,15.032638 8.79551335,13.9177087 C6.50256671,11.7968994 6.83022402,8.54505241 9.48304463,6.80706147 C11.8407882,5.26240689 15.2985528,5.77736447 16.9608382,7.92060907 C18.4114972,9.79081196 18.2409961,12.2734588 16.4700613,13.8445848 C15.9576127,14.2992907 15.773185,14.6734913 16.1020059,15.2729176 C16.1626939,15.3836033 16.169639,15.5237422 16.2048737,15.6635174 Z M10.2129376,9.86208133 C10.5480491,9.86240859 10.8239997,9.60016639 10.83669,9.26916378 C10.8500712,8.91874391 10.5682299,8.62483047 10.2173373,8.62337599 C9.86993551,8.62181243 9.57889466,8.91983477 9.59096682,9.26505489 C9.6023481,9.59489391 9.88022594,9.86168135 10.2129376,9.86208133 Z M14.0756285,8.62475775 C13.7504802,8.62250331 13.4742023,8.8886726 13.4609302,9.21720259 C13.4468581,9.56853151 13.7198998,9.85702703 14.0675925,9.85789971 C14.4038676,9.85899057 14.6695642,9.60467527 14.6817818,9.27007283 C14.6948357,8.91794395 14.4216486,8.62715763 14.0756285,8.62475775 Z"/>
  </g>
</svg>
