<svg xmlns="http://www.w3.org/2000/svg" width="20" height="20" viewBox="0 0 20 20">
  <path fill="#7E8085" fill-rule="evenodd" d="M15.6632779,3.56627238 C16.1910951,4.27557286 15.9986495,5.38484713 15.9364667,5.5870832 C15.8735278,5.79162514 15.6453601,6.11414441 15.1655503,5.98826663 C14.6857027,5.86242666 14.7722295,5.42979268 14.8351684,5.02860925 C14.8864268,4.70166724 14.7027132,4.35911336 14.6329324,4.2435175 C14.6329324,4.2434797 14.6328946,4.2434797 14.6328946,4.2434797 C14.6327812,4.24336629 14.6327055,4.24321509 14.6326677,4.24310168 C14.6169425,4.2170945 14.6070764,4.20261667 14.6070764,4.20261667 L14.6078702,4.20208745 C14.5340446,4.08966688 14.4205656,3.98964508 14.4194694,3.98866225 C14.3361557,3.92670619 13.9857013,3.68428752 13.6322229,3.71218476 C13.227335,3.74412672 12.7893711,3.79719951 12.7006896,3.30907347 C12.6120081,2.82094742 12.9511221,2.61829554 13.1598222,2.57123313 C13.36856,2.52417072 14.5130272,2.44289828 15.1766639,3.04624218 C15.3464288,3.17204435 15.5789057,3.45876596 15.6449065,3.54207965 L15.6453223,3.54181505 C15.6480062,3.54529275 15.6504255,3.54892166 15.6530716,3.55239936 C15.6595734,3.56067781 15.6632779,3.56540295 15.6632779,3.56540295 L15.6632779,3.56627238 Z M17.4531616,1.8733864 C19.1298687,4.11510704 18.3027042,6.23835894 18.2641471,6.41817893 C18.22215,6.61436682 18.0259243,6.89462442 17.4514227,6.83856534 C16.8769211,6.78250626 16.8909453,6.09592426 16.8909453,6.09592426 C17.7036319,3.86796323 15.9716973,2.29399961 15.9716973,2.29399961 C15.3784463,1.79891816 14.2164395,1.11074852 12.6806928,1.56224526 C12.6806928,1.56224526 11.9946022,1.53249577 11.975248,0.955537064 C11.9560451,0.378616158 12.2482478,0.200761822 12.446666,0.171314739 C12.6284894,0.144286928 14.7981233,-0.54505455 16.9272722,1.26781223 C16.9272722,1.26781223 16.9687022,1.29979199 16.9865822,1.31884376 C17.1610722,1.47129574 17.4531616,1.8733864 17.4531616,1.8733864 Z M14.556007,7.46213285 C15.8853595,8.00673378 16.2367967,9.13316978 16.17571,9.98887404 C16.1145856,10.8445783 15.426983,12.0823008 13.7767745,13.274095 C12.1264904,14.4658513 9.8039509,14.9701563 8.19951957,14.9701563 C6.59508824,14.9701563 5.15879635,14.786783 3.61552726,14.2214292 C2.07225816,13.6560755 1.39988939,12.8920389 0.910969527,12.3878474 C0.422011859,11.8835803 0.13166135,11.027876 0.13166135,11.027876 C-0.510088502,8.10940166 2.14861645,5.45065891 2.94319629,4.67138853 C3.73773832,3.89208035 5.99919116,2.13493244 7.83277297,2.10435133 C9.66631697,2.07377021 9.1773971,4.07545365 9.07045769,4.57968298 C8.96351829,5.08391231 9.27307177,4.91584846 9.27307177,4.91584846 C9.27307177,4.91584846 10.1348242,4.63513724 10.348514,4.54403651 C10.562166,4.45297358 12.2401584,4.03958038 13.0213566,4.42144743 C13.8025548,4.80331449 13.8200568,5.31472603 13.841112,5.53892456 C13.8620916,5.76308528 13.7955616,6.34461792 13.6974677,6.54080581 C13.5993738,6.7369937 13.5608544,6.95767672 13.6203912,7.05577066 C13.679928,7.1538646 14.556007,7.46213285 14.556007,7.46213285 Z M7.83575926,13.8629611 C10.8886544,13.4371313 13.1375195,11.4710565 12.8586983,9.47156553 C12.5797638,7.47211235 9.87868374,6.19643748 6.82578856,6.62230505 C3.77285558,7.04809703 1.52399052,9.01417181 1.80288728,11.0136628 C2.08178405,13.0131538 4.78278847,14.2887908 7.83575926,13.8629611 Z M9.94562955,9.92680458 C10.2315573,11.2907073 9.17289877,12.6668198 7.58101741,13.000566 C5.98913606,13.3342366 4.4668844,12.4991339 4.18095662,11.135269 C3.89502884,9.77147972 4.953763,8.39532944 6.54560655,8.06162103 C8.13748791,7.72787482 9.65973957,8.56297747 9.94562955,9.92680458 Z M6.09932637,11.2571021 C6.65651508,11.2571021 7.10820083,10.8054163 7.10820083,10.2482654 C7.10820083,9.69107671 6.65651508,9.23939096 6.09932637,9.23939096 C5.54213765,9.23939096 5.0904519,9.69107671 5.0904519,10.2482654 C5.0904519,10.8054163 5.54213765,11.2571021 6.09932637,11.2571021 Z M8.47440941,11.3411718 C8.74136102,11.3411718 8.95781031,11.1247603 8.95781031,10.8577709 C8.95781031,10.5907815 8.74139882,10.3743322 8.47440941,10.3743322 C8.20742,10.3743322 7.99097071,10.5907815 7.99097071,10.8577709 C7.99097071,11.1247225 8.20742,11.3411718 8.47440941,11.3411718 Z" transform="translate(.545 2.727)"/>
</svg>
